# xmcd CD database file
#
# Track frame offsets:
#	150
#	15472
#	27807
#	39625
#	52727
#	69997
#	81120
#	92825
#	105080
#	134025
#	147120
#	164520
#	189412
#	207760
#	216512
#
# Disc length: 3423 seconds
#
# Revision: 0
# Processed by: cddbd v1.5.1PL0 Copyright (c) Steve Scherf et al.
# Submitted via: CDex 1.50
#
DISCID=c60d5d0f
DTITLE=高橋アキ - Let it be
DYEAR=1900
DGENRE=New Age
TTITLE0=ゴールデンスランバー-武満
TTITLE1=ミズリー-ラシドカリムソン
TTITLE2=ノルウェーの森-ラシドカリムソン
TTITLE3=猿の手、ベルベットの手-カイヤサーリアホ
TTITLE4=ブルージェイウェイ-ジグムントクラウゼ
TTITLE5=ラブミードゥ-ジェイムズテニー
TTITLE6=ドゥーユーウオントトゥノウアシークレット-ジェイムズテニー
TTITLE7=レットイットビー-三輪真弘
TTITLE8=マザーメアリーカムズトゥーミー(レットイットビー)-柿沼唯
TTITLE9=スナップショット(ハローグッドバイ)-アールテンアルテナ
TTITLE10=ガール-オットージダルタ
TTITLE11=ジョージ飛行機を乗り間違える-ヤンロクスファンローゼンタール
TTITLE12=アイウィル-谷川賢作
TTITLE13=イエスタデイ-ヨハネスフリッチ
TTITLE14=アキ 2.2-坂本龍一
EXTD=
EXTT0=
EXTT1=
EXTT2=
EXTT3=
EXTT4=
EXTT5=
EXTT6=
EXTT7=
EXTT8=
EXTT9=
EXTT10=
EXTT11=
EXTT12=
EXTT13=
EXTT14=
PLAYORDER=
